<?xml version="1.0" encoding="utf-8"?>
<!-- Generator: Adobe Illustrator 25.1.0, SVG Export Plug-In . SVG Version: 6.00 Build 0)  -->
<svg version="1.1" xmlns="http://www.w3.org/2000/svg" xmlns:xlink="http://www.w3.org/1999/xlink" x="0px" y="0px"
	 viewBox="0 0 425.3 425.3" style="enable-background:new 0 0 425.3 425.3;" xml:space="preserve">
<style type="text/css">
	.st0{display:none;}
	.st1{fill:#FFFFFF;}
</style>
<g id="Ebene_1">
	<path class="st0" d="M40.6,113.3l172.1-99.4v198.7L40.6,312V113.3z M212.7,212.4l172.1,99.4l0-198.7L212.7,13.7L212.7,212.4z
		 M212.9,411.2c0,0,172-99.6,172-99.6l-172.2-99.2L40.7,312C40.7,312,212.9,411.2,212.9,411.2z"/>
	<path class="st1" d="M332.4,87.4v193.4l-0.5,0.3l-60.4,35.7c0.6,1.6,0.9,3.3,0.9,5.1c0,8.3-6.7,15-15,15c-8.3,0-15-6.7-15-15
		s6.7-15,15-15c4,0,7.7,1.6,10.4,4.2l57.7-34.2V85.5c0-0.6,0.2-1.2,0.5-1.7l-52.8-30.5v193.3l-0.5,0.3l-45.5,26.9
		c0.4,1.3,0.6,2.7,0.6,4.2c0,8.3-6.7,15-15,15c-8.3,0-15-6.7-15-15s6.7-15,15-15c4.4,0,8.3,1.9,11,4.9l42.6-25.2V50.9
		c0-0.5,0.1-1,0.3-1.4l-50.7-29.2l-0.2,193.1l-0.5,0.3l-53.3,31.8c0.2,1,0.3,2.1,0.3,3.1c0,8.3-6.7,15-15,15c-8.3,0-15-6.7-15-15
		c0-8.3,6.7-15,15-15c4.7,0,9,2.2,11.7,5.7l49.9-29.7l0.2-189.3l-164.1,95l0,193.3l167.6,96.7l167.3-96.8l0-193.4L332.4,87.4z
		 M296.9,260.3V95.6c0-1.9,1.5-3.4,3.4-3.4s3.4,1.5,3.4,3.4v168.6l-0.5,0.3l-102.1,60.3c0.6,1.6,0.9,3.3,0.9,5c0,8.3-6.7,15-15,15
		s-15-6.7-15-15c0-8.3,6.7-15,15-15c4,0,7.7,1.6,10.4,4.2L296.9,260.3z M142.5,282.6l95.4-56.4v-157c0-1.9,1.5-3.4,3.4-3.4
		s3.4,1.5,3.4,3.4v160.9l-0.5,0.3l-98.3,58.1c0.4,1.4,0.7,2.9,0.7,4.4c0,8.3-6.7,15-15,15c-8.3,0-15-6.7-15-15s6.7-15,15-15
		C135.9,277.9,139.7,279.7,142.5,282.6z M360.8,297.1l-0.5,0.3l-147,86.9l-0.5-0.3l-147-86.9V122.9l1.7-1l114.7-66.5
		c0.8-0.5,1.7-0.6,2.6-0.3c0.9,0.2,1.6,0.8,2.1,1.6c0.5,0.8,0.6,1.7,0.3,2.6c-0.2,0.9-0.8,1.6-1.6,2.1l-113,65.5v166.4l140.7,83.2
		L354,293.2V131.6c0-1.9,1.5-3.4,3.4-3.4c1.9,0,3.4,1.5,3.4,3.4V297.1z"/>
</g>
<g id="solutions">
</g>
</svg>
